<svg xmlns="http://www.w3.org/2000/svg" xmlns:xlink="http://www.w3.org/1999/xlink" width="500" zoomAndPan="magnify" viewBox="0 0 375 374.999991" height="500" preserveAspectRatio="xMidYMid meet" version="1.0"><rect x="-37.5" width="450" fill="#ffffff" y="-37.499999" height="449.999989" fill-opacity="1"/><rect x="-37.5" width="450" fill="#ffffff" y="-37.499999" height="449.999989" fill-opacity="1"/><path fill="#4f8f37" d="M 327.867188 0.730469 L 47.027344 0.730469 C 21.21875 0.730469 0 21.921875 0 47.613281 L 0 327.160156 C 0 352.855469 21.21875 374.265625 47.027344 374.265625 L 186.765625 374.265625 L 186.765625 245.359375 L 140.625 245.359375 L 140.625 188.230469 L 186.765625 188.230469 L 186.765625 140.796875 C 186.765625 102.191406 218.878906 71.777344 257.660156 71.777344 L 305.417969 71.777344 L 305.417969 129.636719 L 281.0625 129.636719 C 268.144531 129.636719 257.8125 127.9375 257.8125 140.796875 L 257.8125 188.230469 L 316.167969 188.230469 L 292.765625 245.359375 L 257.8125 245.359375 L 257.8125 374.265625 L 327.867188 374.265625 C 353.683594 374.265625 375 352.855469 375 327.160156 L 375 47.613281 C 375 21.921875 353.683594 0.730469 327.867188 0.730469 Z M 327.867188 0.730469 " fill-opacity="1" fill-rule="nonzero"/></svg>