<svg xmlns="http://www.w3.org/2000/svg" xmlns:xlink="http://www.w3.org/1999/xlink" width="500" zoomAndPan="magnify" viewBox="0 0 375 374.999991" height="500" preserveAspectRatio="xMidYMid meet" version="1.0"><rect x="-37.5" width="450" fill="#ffffff" y="-37.499999" height="449.999989" fill-opacity="1"/><rect x="-37.5" width="450" fill="#ffffff" y="-37.499999" height="449.999989" fill-opacity="1"/><path fill="#4f8f37" d="M 66.5625 0 L 308.214844 0 C 326.667969 0 343.367188 7.46875 355.449219 19.550781 C 367.53125 31.632812 375 48.332031 375 66.5625 L 375 308.214844 C 375 326.667969 367.53125 343.367188 355.449219 355.449219 C 343.367188 367.53125 326.667969 375 308.214844 375 L 66.5625 375 C 48.332031 375 31.632812 367.53125 19.550781 355.449219 C 7.46875 343.367188 0 326.667969 0 308.214844 L 0 66.5625 C 0 48.332031 7.46875 31.632812 19.550781 19.550781 C 31.632812 7.46875 48.332031 0 66.5625 0 Z M 308.214844 19.550781 L 66.5625 19.550781 C 53.601562 19.550781 41.960938 24.824219 33.390625 33.390625 C 24.824219 41.960938 19.550781 53.601562 19.550781 66.5625 L 19.550781 308.214844 C 19.550781 321.175781 24.824219 333.039062 33.390625 341.609375 C 41.960938 349.957031 53.601562 355.449219 66.5625 355.449219 L 308.214844 355.449219 C 321.175781 355.449219 333.039062 349.957031 341.609375 341.609375 C 349.957031 333.039062 355.449219 321.175781 355.449219 308.214844 L 355.449219 66.5625 C 355.449219 53.601562 349.957031 41.960938 341.609375 33.390625 C 333.039062 24.824219 321.175781 19.550781 308.214844 19.550781 Z M 308.214844 19.550781 " fill-opacity="1" fill-rule="nonzero"/><path fill="#4f8f37" d="M 68.542969 130.050781 L 104.789062 130.050781 C 108.964844 130.050781 112.699219 131.589844 115.332031 134.226562 C 118.191406 136.863281 120.167969 140.597656 120.167969 144.992188 L 120.167969 313.050781 C 120.167969 317.222656 118.191406 321.175781 115.332031 323.8125 C 112.699219 326.449219 108.964844 327.988281 104.789062 327.988281 L 68.542969 327.988281 C 64.367188 327.988281 60.632812 326.449219 57.996094 323.8125 C 54.921875 321.175781 53.164062 317.222656 53.164062 313.050781 L 53.164062 144.992188 C 53.164062 140.597656 54.921875 136.863281 57.996094 134.226562 C 60.632812 131.589844 64.367188 130.050781 68.542969 130.050781 Z M 100.613281 149.605469 L 72.714844 149.605469 L 72.714844 308.4375 L 100.613281 308.4375 Z M 100.613281 149.605469 " fill-opacity="1" fill-rule="nonzero"/><path fill="#4f8f37" d="M 160.148438 129.613281 L 196.398438 129.613281 C 200.570312 129.613281 204.304688 131.371094 206.941406 133.789062 C 210.015625 136.644531 211.773438 140.378906 211.773438 144.550781 L 211.773438 145.871094 C 219.683594 140.597656 228.691406 136.644531 237.917969 134.445312 C 250.660156 131.371094 264.058594 131.152344 276.363281 134.007812 C 288.882812 137.082031 300.527344 143.671875 308.65625 154 C 316.785156 163.882812 321.617188 177.285156 321.617188 193.980469 L 321.617188 312.609375 C 321.617188 316.785156 319.859375 320.519531 317.003906 323.375 C 314.367188 325.789062 310.632812 327.546875 306.457031 327.546875 L 269.992188 327.546875 C 266.035156 327.546875 262.300781 325.789062 259.445312 323.375 C 256.589844 320.519531 254.832031 316.785156 254.832031 312.609375 L 254.832031 218.804688 C 254.832031 210.015625 249.78125 204.527344 243.410156 202.109375 C 240.554688 201.011719 237.257812 200.570312 234.183594 200.570312 C 230.886719 200.570312 227.59375 201.230469 224.515625 202.328125 C 217.265625 204.964844 211.773438 210.457031 211.773438 218.804688 L 211.773438 313.050781 C 211.773438 317.222656 210.015625 321.175781 206.941406 323.8125 C 204.304688 326.449219 200.570312 327.988281 196.398438 327.988281 L 160.148438 327.988281 C 155.976562 327.988281 152.242188 326.449219 149.605469 323.8125 C 146.75 321.175781 144.773438 317.222656 144.773438 313.050781 L 144.773438 144.550781 C 144.773438 140.378906 146.75 136.644531 149.605469 133.789062 C 152.242188 131.371094 155.976562 129.613281 160.148438 129.613281 Z M 192.222656 149.164062 L 164.324219 149.164062 L 164.324219 308.4375 L 192.222656 308.4375 L 192.222656 218.804688 C 192.222656 201.011719 203.425781 189.148438 217.925781 183.875 C 222.980469 182.117188 228.472656 181.238281 233.964844 181.019531 C 239.457031 181.019531 244.945312 181.898438 250.21875 183.875 C 263.839844 188.929688 274.386719 200.351562 274.386719 218.804688 L 274.386719 307.996094 L 302.066406 307.996094 L 302.066406 193.980469 C 302.066406 182.117188 298.769531 172.890625 293.496094 166.300781 C 288.003906 159.492188 280.316406 155.097656 271.75 152.898438 C 262.523438 150.703125 252.417969 150.921875 242.75 153.339844 C 229.570312 156.632812 217.707031 163.664062 210.015625 174.210938 C 208.261719 176.84375 205.402344 178.382812 201.890625 178.382812 C 196.617188 178.382812 192.222656 173.988281 192.222656 168.71875 Z M 192.222656 149.164062 " fill-opacity="1" fill-rule="nonzero"/><path fill="#4f8f37" d="M 86.554688 46.792969 C 96.441406 46.792969 105.449219 50.964844 111.820312 57.335938 C 118.191406 63.707031 122.144531 72.714844 122.144531 82.382812 C 122.144531 92.265625 118.191406 101.054688 111.820312 107.644531 C 105.449219 114.015625 96.441406 117.96875 86.554688 117.96875 C 76.890625 117.96875 67.882812 114.015625 61.511719 107.644531 C 55.140625 101.054688 51.1875 92.265625 51.1875 82.382812 C 51.1875 72.714844 55.140625 63.707031 61.511719 57.335938 C 67.882812 50.964844 76.890625 46.792969 86.554688 46.792969 Z M 97.980469 71.175781 C 95.121094 68.320312 91.167969 66.5625 86.554688 66.5625 C 82.160156 66.5625 78.207031 68.320312 75.351562 71.175781 C 72.496094 74.035156 70.738281 77.988281 70.738281 82.382812 C 70.738281 86.773438 72.496094 90.949219 75.351562 93.804688 C 78.207031 96.660156 82.160156 98.417969 86.554688 98.417969 C 91.167969 98.417969 95.121094 96.660156 97.980469 93.804688 C 100.835938 90.949219 102.59375 86.773438 102.59375 82.382812 C 102.59375 77.988281 100.835938 74.035156 97.980469 71.175781 Z M 97.980469 71.175781 " fill-opacity="1" fill-rule="nonzero"/></svg>